<svg width="18" height="18" viewBox="0 0 18 18" fill="none" xmlns="http://www.w3.org/2000/svg">
<path d="M9.00004 3.50707C10.898 3.50707 11.124 3.51407 11.874 3.54907C13.801 3.63707 14.701 4.55107 14.789 6.46407C14.823 7.21407 14.829 7.43907 14.829 9.33707C14.829 11.2371 14.823 11.4611 14.789 12.2111C14.701 14.1211 13.803 15.0381 11.874 15.1261C11.124 15.1601 10.9 15.1671 9.00004 15.1671C7.10104 15.1671 6.87604 15.1601 6.12604 15.1261C4.19404 15.0371 3.29904 14.1191 3.21104 12.2101C3.17704 11.4601 3.17004 11.2361 3.17004 9.33707C3.17004 7.43807 3.17804 7.21307 3.21104 6.46307C3.30004 4.55107 4.19704 3.63607 6.12604 3.54807C6.87604 3.51407 7.10104 3.50707 9.00004 3.50707ZM9.00004 2.22607C7.06904 2.22607 6.82704 2.23407 6.06804 2.26807C3.48604 2.38707 2.05004 3.82007 1.93204 6.40507C1.89704 7.16407 1.88904 7.40507 1.88904 9.33707C1.88904 11.2681 1.89704 11.5101 1.93104 12.2691C2.05004 14.8511 3.48304 16.2871 6.06804 16.4051C6.82704 16.4401 7.06804 16.4481 9.00004 16.4481C10.931 16.4481 11.173 16.4401 11.932 16.4051C14.512 16.2871 15.951 14.8541 16.068 12.2691C16.103 11.5101 16.111 11.2681 16.111 9.33707C16.111 7.40507 16.103 7.16407 16.068 6.40507C15.952 3.82507 14.518 2.38707 11.932 2.26907C11.173 2.23407 10.931 2.22607 9.00004 2.22607ZM9.00004 5.68607C8.51543 5.67805 8.03408 5.76658 7.58403 5.94648C7.13398 6.12639 6.72425 6.39407 6.37871 6.73394C6.03317 7.07381 5.75874 7.47906 5.57141 7.92607C5.38408 8.37308 5.28761 8.8529 5.28761 9.33757C5.28761 9.82225 5.38408 10.3021 5.57141 10.7491C5.75874 11.1961 6.03317 11.6013 6.37871 11.9412C6.72425 12.2811 7.13398 12.5488 7.58403 12.7287C8.03408 12.9086 8.51543 12.9971 9.00004 12.9891C9.96861 12.9891 10.8975 12.6043 11.5824 11.9194C12.2673 11.2345 12.652 10.3056 12.652 9.33707C12.652 8.3685 12.2673 7.4396 11.5824 6.75472C10.8975 6.06984 9.96861 5.68607 9.00004 5.68607ZM9.00004 11.7071C8.37148 11.7071 7.76866 11.4574 7.32419 11.0129C6.87973 10.5685 6.63004 9.96564 6.63004 9.33707C6.63004 8.70851 6.87973 8.10569 7.32419 7.66123C7.76866 7.21677 8.37148 6.96707 9.00004 6.96707C9.6286 6.96707 10.2314 7.21677 10.6759 7.66123C11.1203 8.10569 11.37 8.70851 11.37 9.33707C11.37 9.96564 11.1203 10.5685 10.6759 11.0129C10.2314 11.4574 9.6286 11.7071 9.00004 11.7071ZM12.796 4.68707C12.5695 4.68707 12.3523 4.77705 12.1922 4.93721C12.032 5.09736 11.942 5.31458 11.942 5.54107C11.942 5.76757 12.032 5.98479 12.1922 6.14494C12.3523 6.3051 12.5695 6.39507 12.796 6.39507C13.0173 6.3875 13.2271 6.29426 13.3809 6.13502C13.5348 5.97579 13.6208 5.76301 13.6208 5.54157C13.6208 5.32014 13.5348 5.10736 13.3809 4.94813C13.2271 4.78889 13.0173 4.69565 12.796 4.68807V4.68707Z" fill="white"/>
</svg>
