<svg width="18" height="18" viewBox="0 0 18 18" fill="none" xmlns="http://www.w3.org/2000/svg">
<path d="M5.13 15.2841H2.358V6.41307H5.13V15.2841ZM3.674 5.30407H3.654C2.651 5.30407 2 4.62407 2 3.76607C2 2.89007 2.67 2.22607 3.694 2.22607C4.716 2.22607 5.345 2.88807 5.365 3.76307C5.365 4.62307 4.715 5.30407 3.674 5.30407ZM16.222 15.2841H13.08V10.6941C13.08 9.49207 12.59 8.67307 11.507 8.67307C10.679 8.67307 10.22 9.22607 10.007 9.75907C9.927 9.94907 9.938 10.2171 9.938 10.4841V15.2841H6.823C6.823 15.2841 6.863 7.15207 6.823 6.41307H9.937V7.80507C10.121 7.19607 11.117 6.32707 12.705 6.32707C14.675 6.32707 16.222 7.60307 16.222 10.3511V15.2841Z" fill="white"/>
</svg>
