<svg width="14" height="14" viewBox="0 0 14 14" fill="none" xmlns="http://www.w3.org/2000/svg">
<path d="M11.2708 3.24461C11.1823 3.19882 11.096 3.14863 11.0124 3.09422C10.7694 2.93356 10.5466 2.74426 10.3488 2.53039C9.85389 1.9641 9.66905 1.38961 9.60096 0.987383H9.6037C9.54682 0.653516 9.57034 0.4375 9.57389 0.4375H7.31967V9.15414C7.31967 9.27117 7.31967 9.38684 7.31475 9.50113C7.31475 9.51535 7.31338 9.52848 7.31256 9.54379C7.31256 9.55008 7.31256 9.55664 7.3112 9.5632C7.3112 9.56484 7.3112 9.56648 7.3112 9.56813C7.28744 9.88088 7.18718 10.183 7.01925 10.4479C6.85132 10.7128 6.62086 10.9324 6.34815 11.0873C6.06392 11.249 5.74246 11.3339 5.41546 11.3334C4.36518 11.3334 3.51397 10.477 3.51397 9.41938C3.51397 8.36172 4.36518 7.50531 5.41546 7.50531C5.61427 7.50513 5.81186 7.53641 6.00089 7.59801L6.00362 5.30277C5.42977 5.22865 4.84679 5.27425 4.29146 5.43671C3.73612 5.59917 3.22047 5.87496 2.77706 6.24668C2.38852 6.58427 2.06188 6.98707 1.81182 7.43695C1.71667 7.60102 1.35764 8.26027 1.31417 9.33023C1.28682 9.93754 1.46921 10.5667 1.55616 10.8268V10.8322C1.61085 10.9854 1.82276 11.5079 2.16811 11.9484C2.44659 12.3018 2.7756 12.6122 3.14456 12.8696V12.8641L3.15003 12.8696C4.24131 13.6112 5.45128 13.5625 5.45128 13.5625C5.66073 13.554 6.36237 13.5625 7.15917 13.1849C8.04292 12.7662 8.54604 12.1425 8.54604 12.1425C8.86746 11.7699 9.12305 11.3452 9.30182 10.8866C9.50581 10.3504 9.57389 9.7073 9.57389 9.45027V4.8259C9.60124 4.8423 9.96546 5.0832 9.96546 5.0832C9.96546 5.0832 10.4902 5.41953 11.3089 5.63856C11.8962 5.79441 12.6875 5.82723 12.6875 5.82723V3.58941C12.4103 3.61949 11.8473 3.53199 11.2708 3.24461Z" fill="white"/>
</svg>
