<svg width="31" height="24" viewBox="0 0 31 24" fill="none" xmlns="http://www.w3.org/2000/svg">
<path d="M5.62527 23.9448V22.3502C5.62527 21.7387 5.2528 21.3403 4.64144 21.3403C4.32035 21.3403 3.97678 21.4468 3.73724 21.7894C3.55101 21.4968 3.28771 21.3403 2.88635 21.3403C2.73712 21.3338 2.58862 21.3644 2.45413 21.4294C2.31965 21.4943 2.20338 21.5916 2.11572 21.7124V21.3916H1.61032V23.9428H2.11572V22.4831C2.11572 22.0339 2.38159 21.8189 2.75406 21.8189C3.12652 21.8189 3.33909 22.0583 3.33909 22.4831V23.9448H3.84449V22.4831C3.84449 22.0339 4.11035 21.8189 4.48282 21.8189C4.85529 21.8189 5.06785 22.0583 5.06785 22.4831V23.9448H5.62527ZM13.9236 21.4198H12.9924V20.6498H12.4883V21.4198H11.9566V21.869H12.4883V23.0676C12.4883 23.6522 12.7009 23.998 13.3392 23.998C13.5811 23.993 13.818 23.9291 14.0296 23.8119L13.8697 23.3628C13.7262 23.4524 13.5598 23.4985 13.3906 23.4956C13.1247 23.4956 12.9918 23.3358 12.9918 23.0702V21.8485H13.923V21.423L13.9236 21.4198ZM18.6578 21.3403C18.5202 21.3372 18.3841 21.3699 18.2628 21.4351C18.1416 21.5003 18.0394 21.5959 17.9662 21.7124V21.3916H17.4608V23.9428H17.9662V22.51C17.9662 22.0846 18.1787 21.8189 18.5249 21.8189C18.6417 21.8237 18.7576 21.8415 18.8704 21.8722L19.0303 21.3935C18.9083 21.3628 18.7835 21.3449 18.6578 21.3403ZM11.5032 21.6059C11.2373 21.4198 10.8649 21.3403 10.4661 21.3403C9.82774 21.3403 9.42895 21.6329 9.42895 22.1378C9.42895 22.5633 9.72178 22.802 10.2798 22.8822L10.5457 22.9085C10.8385 22.9617 11.0248 23.0682 11.0248 23.2011C11.0248 23.3872 10.8122 23.5219 10.4128 23.5219C10.1078 23.5282 9.80905 23.4349 9.56188 23.2563L9.29601 23.6547C9.66848 23.9204 10.1206 23.9756 10.3877 23.9756C11.1327 23.9756 11.5315 23.6303 11.5315 23.1517C11.5315 22.7025 11.2104 22.4875 10.6536 22.4073L10.3877 22.381C10.1482 22.3547 9.9382 22.2745 9.9382 22.1154C9.9382 21.9293 10.1508 21.7946 10.4436 21.7946C10.7647 21.7946 11.0819 21.9274 11.2418 22.0069L11.5032 21.6059ZM19.2165 22.6691C19.2165 23.4391 19.7219 23.998 20.5465 23.998C20.919 23.998 21.1848 23.9184 21.4507 23.7054L21.1848 23.3069C20.9966 23.4593 20.7624 23.5436 20.5202 23.5463C20.0706 23.5463 19.7219 23.2011 19.7219 22.6961C19.7219 22.1911 20.0661 21.8485 20.5202 21.8485C20.7624 21.8511 20.9966 21.9355 21.1848 22.0878L21.4507 21.6893C21.1848 21.4769 20.919 21.3967 20.5465 21.3967C19.7482 21.3435 19.2165 21.9017 19.2165 22.6723V22.6691ZM15.6524 21.3403C14.9074 21.3403 14.402 21.8716 14.402 22.6691C14.402 23.4667 14.9338 23.998 15.705 23.998C16.0803 24.0059 16.4467 23.884 16.7422 23.6528L16.4763 23.2806C16.2626 23.4461 16.0016 23.5392 15.7314 23.5463C15.3859 23.5463 15.0134 23.3339 14.9607 22.8822H16.8494V22.6698C16.8494 21.8722 16.3703 21.3409 15.6524 21.3409V21.3403ZM15.626 21.8189C15.9985 21.8189 16.2644 22.0583 16.2907 22.4567H14.9081C14.9877 22.0846 15.2292 21.8189 15.626 21.8189ZM8.73731 22.6691V21.3935H8.23191V21.7143C8.04568 21.475 7.78238 21.3422 7.40734 21.3422C6.68938 21.3422 6.157 21.9004 6.157 22.6711C6.157 23.4417 6.68874 23.9999 7.40734 23.9999C7.77981 23.9999 8.04568 23.8671 8.23191 23.6278V23.9486H8.73731V22.6691ZM6.68938 22.6691C6.68938 22.1905 6.98221 21.8189 7.48762 21.8189C7.96669 21.8189 8.25824 22.1911 8.25824 22.6691C8.25824 23.1741 7.93715 23.5193 7.48762 23.5193C6.98221 23.5456 6.68938 23.1472 6.68938 22.6691ZM26.3454 21.3403C26.2078 21.3372 26.0717 21.3699 25.9504 21.4351C25.8292 21.5003 25.727 21.5959 25.6538 21.7124V21.3916H25.1484V23.9428H25.6532V22.51C25.6532 22.0846 25.8657 21.8189 26.2119 21.8189C26.3287 21.8237 26.4446 21.8415 26.5574 21.8722L26.7173 21.3935C26.5953 21.3628 26.4705 21.3449 26.3448 21.3403H26.3454ZM24.3771 22.6691V21.3935H23.8717V21.7143C23.6855 21.475 23.4222 21.3422 23.0472 21.3422C22.3292 21.3422 21.7968 21.9004 21.7968 22.6711C21.7968 23.4417 22.3286 23.9999 23.0472 23.9999C23.4196 23.9999 23.6855 23.8671 23.8717 23.6278V23.9486H24.3771V22.6691ZM22.3292 22.6691C22.3292 22.1905 22.622 21.8189 23.1274 21.8189C23.6065 21.8189 23.8981 22.1911 23.8981 22.6691C23.8981 23.1741 23.577 23.5193 23.1274 23.5193C22.622 23.5456 22.3292 23.1472 22.3292 22.6691ZM29.5108 22.6691V20.3835H29.0054V21.7124C28.8191 21.4731 28.5558 21.3403 28.1808 21.3403C27.4628 21.3403 26.9305 21.8985 26.9305 22.6691C26.9305 23.4398 27.4622 23.998 28.1808 23.998C28.5533 23.998 28.8191 23.8652 29.0054 23.6259V23.9467H29.5108V22.6691ZM27.4628 22.6691C27.4628 22.1905 27.7557 21.8189 28.2611 21.8189C28.7401 21.8189 29.0317 22.1911 29.0317 22.6691C29.0317 23.1741 28.7106 23.5193 28.2611 23.5193C27.755 23.5463 27.4622 23.1478 27.4622 22.6691H27.4628Z" fill="black"/>
<path d="M20.1477 2.04639H10.9182V17.0882H20.1477V2.04639Z" fill="#FF5F00"/>
<path d="M11.8493 9.56715C11.8497 8.12013 12.1776 6.69192 12.8086 5.38947C13.4396 4.08703 14.3574 2.94409 15.4931 2.04626C14.0807 0.936646 12.3843 0.24651 10.5978 0.0547432C8.81134 -0.137024 7.00692 0.177316 5.39082 0.961829C3.77471 1.74634 2.41213 2.96937 1.45884 4.49111C0.505542 6.01285 0 7.77189 0 9.56715C0 11.3624 0.505542 13.1215 1.45884 14.6432C2.41213 16.1649 3.77471 17.388 5.39082 18.1725C7.00692 18.957 8.81134 19.2713 10.5978 19.0796C12.3843 18.8878 14.0807 18.1977 15.4931 17.0881C14.3574 16.1902 13.4396 15.0473 12.8086 13.7448C12.1776 12.4424 11.8497 11.0142 11.8493 9.56715Z" fill="#EB001B"/>
<path d="M31 9.56714C31.0013 11.3611 30.4973 13.1192 29.5455 14.6404C28.5938 16.1616 27.2328 17.3844 25.6182 18.169C24.0036 18.9536 22.2006 19.2683 20.4154 19.0772C18.6301 18.886 16.9348 18.1967 15.5233 17.088C16.6593 16.1904 17.5772 15.0476 18.2083 13.7451C18.8393 12.4426 19.1672 11.0142 19.1672 9.56714C19.1672 8.12005 18.8393 6.69172 18.2083 5.38923C17.5772 4.08673 16.6593 2.94385 15.5233 2.04625C16.9348 0.937592 18.6301 0.248266 20.4154 0.0571061C22.2006 -0.134053 24.0036 0.180672 25.6182 0.965288C27.2328 1.7499 28.5938 2.97273 29.5455 4.4939C30.4973 6.01508 31.0013 7.77319 31 9.56714Z" fill="#F79E1B"/>
</svg>
