<svg width="32" height="32" viewBox="0 0 32 32" fill="none" xmlns="http://www.w3.org/2000/svg">
<path fill-rule="evenodd" clip-rule="evenodd" d="M2 8C2 7.20435 2.31607 6.44129 2.87868 5.87868C3.44129 5.31607 4.20435 5 5 5H27C27.7957 5 28.5587 5.31607 29.1213 5.87868C29.6839 6.44129 30 7.20435 30 8V24C30 24.7957 29.6839 25.5587 29.1213 26.1213C28.5587 26.6839 27.7957 27 27 27H5C4.20435 27 3.44129 26.6839 2.87868 26.1213C2.31607 25.5587 2 24.7957 2 24V8ZM4 21.4133V24C4 24.552 4.448 25 5 25H27C27.2652 25 27.5196 24.8946 27.7071 24.7071C27.8946 24.5196 28 24.2652 28 24V21.4133L24.4133 17.828C24.0383 17.4535 23.53 17.2431 23 17.2431C22.47 17.2431 21.9617 17.4535 21.5867 17.828L20.4133 19L21.7067 20.2933C21.8049 20.3849 21.8837 20.4953 21.9384 20.6179C21.993 20.7406 22.0224 20.873 22.0248 21.0073C22.0272 21.1416 22.0025 21.2749 21.9522 21.3995C21.9019 21.524 21.827 21.6371 21.7321 21.7321C21.6371 21.827 21.524 21.9019 21.3995 21.9522C21.2749 22.0025 21.1416 22.0272 21.0073 22.0248C20.873 22.0224 20.7406 21.993 20.618 21.9384C20.4953 21.8837 20.3849 21.8049 20.2933 21.7067L13.4133 14.828C13.0383 14.4535 12.53 14.2431 12 14.2431C11.47 14.2431 10.9617 14.4535 10.5867 14.828L4 21.4147V21.4133ZM17.5 11C17.5 10.6022 17.658 10.2206 17.9393 9.93934C18.2206 9.65804 18.6022 9.5 19 9.5C19.3978 9.5 19.7794 9.65804 20.0607 9.93934C20.342 10.2206 20.5 10.6022 20.5 11C20.5 11.3978 20.342 11.7794 20.0607 12.0607C19.7794 12.342 19.3978 12.5 19 12.5C18.6022 12.5 18.2206 12.342 17.9393 12.0607C17.658 11.7794 17.5 11.3978 17.5 11Z" fill="#757575"/>
</svg>
