<svg width="70" height="24" viewBox="0 0 70 24" fill="none" xmlns="http://www.w3.org/2000/svg">
<g clip-path="url(#clip0_811_24987)">
<path fill-rule="evenodd" clip-rule="evenodd" d="M24.296 12.0088C24.296 18.5591 18.8988 23.8691 12.241 23.8691C5.58283 23.8691 0.185486 18.5591 0.185486 12.0088C0.185486 5.4585 5.58283 0.148464 12.241 0.148464C18.8988 0.148464 24.296 5.4585 24.296 12.0088Z" fill="#ED342B"/>
<path fill-rule="evenodd" clip-rule="evenodd" d="M12.2408 17.0891C9.54432 11.0757 7.5672 5.45795 7.5672 5.45795H3.43352C3.43352 5.45795 5.94947 12.6683 10.6229 21.6853H13.8587C18.5321 12.6683 21.0479 5.45795 21.0479 5.45795H16.9142C16.9142 5.45795 14.9373 11.0757 12.2408 17.0891Z" fill="#FEFEFE"/>
<path fill-rule="evenodd" clip-rule="evenodd" d="M64.1575 11.3902C61.8207 11.3902 61.6413 13.866 61.6413 13.866L66.6733 13.866C66.6733 13.866 66.4939 11.3902 64.1575 11.3902ZM69.729 16.3413H61.6413C61.6413 16.3413 61.8207 18.9941 65.4157 18.9941C67.2128 18.9941 69.0101 18.463 69.0101 18.463L69.3698 21.2922C69.3698 21.2922 67.5725 22 65.0561 22C61.4615 22 58.2264 20.2315 58.2264 15.2804C58.2264 11.3902 60.7428 8.91457 64.3373 8.91457C69.729 8.91457 70.0883 14.2194 69.729 16.3413ZM42.2276 12.1631L42.7842 9.24349C42.7842 9.24349 38.4869 7.96061 34.9942 10.338V22.0166H38.7035V12.5277C40.1872 11.4333 42.2276 12.1631 42.2276 12.1631ZM26.766 11.3902C24.4297 11.3902 24.2501 13.866 24.2501 13.866H29.2823C29.2823 13.866 29.1028 11.3902 26.766 11.3902ZM32.3375 16.3413H24.2501C24.2501 16.3413 24.4297 18.9941 28.0242 18.9941C29.8211 18.9941 31.6186 18.463 31.6186 18.463L31.9783 21.2922C31.9783 21.2922 30.1808 22 27.6646 22C24.07 22 20.8347 20.2315 20.8347 15.2804C20.8347 11.3902 23.3511 8.91457 26.9457 8.91457C32.3375 8.91457 32.6968 14.2194 32.3375 16.3413ZM51.28 17.5531C49.3965 13.1054 48.4551 8.9167 48.4551 8.9167L44.6888 8.91715C44.6888 8.91715 46.5722 16.0705 49.774 21.9978L52.786 21.9978C55.988 16.0705 57.8713 8.91819 57.8713 8.91819H54.1049C54.1049 8.91819 53.1635 13.1054 51.28 17.5531Z" fill="#03435F"/>
</g>
<defs>
<clipPath id="clip0_811_24987">
<rect width="70" height="24" fill="white"/>
</clipPath>
</defs>
</svg>
