<svg width="18" height="18" viewBox="0 0 18 18" fill="none" xmlns="http://www.w3.org/2000/svg">
<path d="M8.99503 4.00295C8.99503 4.00295 4.23103 4.00295 3.03503 4.31395C2.71425 4.40737 2.4225 4.58085 2.18721 4.81806C1.95192 5.05527 1.78083 5.34842 1.69003 5.66995C1.37903 6.86495 1.37903 9.33995 1.37903 9.33995C1.37903 9.33995 1.37903 11.826 1.68903 13.003C1.77889 13.3242 1.95007 13.6168 2.18602 13.8526C2.42197 14.0884 2.71473 14.2593 3.03603 14.349C4.24103 14.669 8.99603 14.669 8.99603 14.669C8.99603 14.669 13.768 14.669 14.964 14.359C15.2857 14.2719 15.5787 14.1015 15.8134 13.865C16.0482 13.6285 16.2164 13.3342 16.301 13.012C16.621 11.826 16.621 9.34995 16.621 9.34995C16.621 9.34995 16.631 6.86395 16.301 5.66895C16.2159 5.34795 16.0474 5.05518 15.8126 4.82036C15.5778 4.58554 15.285 4.41704 14.964 4.33195C13.768 4.00195 8.99503 4.00295 8.99503 4.00295ZM7.48003 7.05295L11.444 9.34095L7.48003 11.62V7.05295Z" fill="white"/>
</svg>
