<svg width="118" height="19" viewBox="0 0 118 19" fill="none" xmlns="http://www.w3.org/2000/svg">
<path d="M5.228 5.76H0.86V1.2H14.588V5.76H10.196V18H5.228V5.76ZM20.5055 18H15.5375V1.2H20.5055V7.248H25.8815V1.2H30.8495V18H25.8815V11.808H20.5055V18ZM32.0609 1.2H44.9249V5.76H37.0289V7.272H43.4369V11.832H37.0289V13.44H45.0449V18H32.0609V1.2ZM58.3183 5.232L53.3983 6.048C53.2783 5.592 52.7263 5.304 52.1263 5.304C51.5503 5.304 51.1423 5.544 51.1423 5.904C51.1423 6.168 51.3103 6.384 51.7663 6.576L52.4383 6.816C52.8463 6.936 53.8063 7.2 54.3103 7.368C55.5823 7.776 56.4943 8.184 57.5262 9.024C58.5583 9.816 59.1343 11.112 59.1343 12.72C59.1343 14.4 58.5343 15.744 57.3583 16.752C56.1823 17.736 54.6463 18.24 52.7503 18.24C50.9743 18.24 49.4383 17.808 48.1183 16.944C46.8223 16.08 46.0063 14.928 45.6463 13.512L50.7103 12.648C50.9023 13.344 51.7422 13.872 52.7743 13.872C53.5423 13.872 54.1663 13.584 54.1663 13.2C54.1663 12.984 54.0223 12.792 53.5423 12.6L52.9183 12.36C52.7503 12.288 52.4383 12.168 52.0303 12.048L51.1183 11.76C49.7743 11.28 48.9103 10.896 47.8303 10.056C46.7743 9.216 46.1743 7.944 46.1743 6.312C46.1743 4.704 46.7023 3.432 47.7823 2.448C48.8623 1.464 50.2783 0.959999 52.0303 0.959999C53.5903 0.959999 54.9583 1.368 56.1343 2.16C57.3103 2.952 58.0543 3.96 58.3183 5.232ZM63.4936 5.76H59.1256V1.2H72.8536V5.76H68.4616V18H63.4936V5.76ZM79.2991 10.992L73.2031 1.2H78.8911L81.7711 6.312L84.8431 1.2H90.5071L84.2671 10.872V18H79.2991V10.992ZM91.1 1.2H96.068V13.44H103.508V18H91.1V1.2ZM104.459 1.2H117.323V5.76H109.427V7.272H115.835V11.832H109.427V13.44H117.443V18H104.459V1.2Z" fill="white"/>
</svg>
